<?xml version="1.0" encoding="UTF-8"?>
<svg width="17px" height="17px" viewBox="0 0 17 17" version="1.1" xmlns="http://www.w3.org/2000/svg" xmlns:xlink="http://www.w3.org/1999/xlink">
    <!-- Generator: Sketch 51.3 (57544) - http://www.bohemiancoding.com/sketch -->
    <title>na</title>
    <desc>Created with Sketch.</desc>
    <defs></defs>
    <g id="Page-1" stroke="none" stroke-width="1" fill="none" fill-rule="evenodd">
        <g id="na" fill="#5BBAE5" fill-rule="nonzero">
            <path d="M8.5,0.5 C4.089,0.5 0.5,4.089 0.5,8.5 C0.5,12.911 4.089,16.5 8.5,16.5 C12.911,16.5 16.5,12.911 16.5,8.5 C16.5,4.089 12.911,0.5 8.5,0.5 Z M8.5,1.5 C10.25,1.5 11.848,2.15 13.077,3.216 L3.217,13.077 C2.15,11.849 1.5,10.25 1.5,8.5 C1.5,4.641 4.64,1.5 8.5,1.5 Z M8.5,15.5 C6.75,15.5 5.152,14.85 3.923,13.784 L13.783,3.923 C14.85,5.151 15.5,6.75 15.5,8.5 C15.5,12.359 12.36,15.5 8.5,15.5 Z" id="Shape"></path>
        </g>
    </g>
</svg>