<?xml version="1.0" encoding="UTF-8"?>
<svg width="33px" height="34px" viewBox="0 0 33 34" version="1.1" xmlns="http://www.w3.org/2000/svg" xmlns:xlink="http://www.w3.org/1999/xlink">
    <!-- Generator: Sketch 51.3 (57544) - http://www.bohemiancoding.com/sketch -->
    <title>event</title>
    <desc>Created with Sketch.</desc>
    <defs></defs>
    <g id="Page-1" stroke="none" stroke-width="1" fill="none" fill-rule="evenodd">
        <g id="event" fill="#5BBAE5" fill-rule="nonzero">
            <path d="M30.072807,3.68813187 C30.0028639,3.6853092 29.9328418,3.68483876 29.8628197,3.68679894 L27.2232157,3.68679894 L27.2232157,1.4337595 C27.2232946,0.532543724 26.3571363,0 25.44977,0 L23.016443,0 C22.1090766,0 21.4491954,0.532543724 21.4491954,1.4337595 L21.4491954,3.68672054 L11.5507395,3.68672054 L11.5507395,1.4337595 C11.5507395,0.532543724 10.8908582,0 9.98349185,0 L7.55008592,0 C6.64279851,0 5.77664021,0.532543724 5.77664021,1.4337595 L5.77664021,3.68672054 L3.13711512,3.68672054 C1.45216407,3.64006808 0.0481697678,4.95896059 0.00119891535,6.63241181 C-0.000774649877,6.70188086 -0.000300994222,6.77150672 0.00254093971,6.84097576 L0.00254093971,30.5180798 C0.00254093971,32.3205114 1.32230348,34 3.13703618,34 L29.8628986,34 C31.6776313,34 32.9973939,32.3205114 32.9973939,30.5180798 L32.9973939,6.84097576 C33.0663897,5.1682302 31.7569687,3.75666003 30.072807,3.68813187 Z M22.9565217,1.7 L25.5391304,1.7 L25.5391304,6.23333333 L22.9565217,6.23333333 L22.9565217,1.7 Z M7.46086957,1.7 L9.75652174,1.7 L9.75652174,6.23333333 L7.46086957,6.23333333 L7.46086957,1.7 Z M31.2782609,30.4553275 C31.2782609,31.3571848 30.7035728,32.3 29.8004466,32.3 L3.19955343,32.3 C2.29642723,32.3 1.72173913,31.3571848 1.72173913,30.4553275 L1.72173913,13.0333333 L31.2782609,13.0333333 L31.2782609,30.4553275 Z M31.559488,6.92304969 L31.559488,11.6166667 L1.72757276,11.6166667 L1.72757276,6.92304969 C1.6573873,6.14630566 2.2286256,5.45955898 3.0034414,5.38919885 C3.07513367,5.38267961 3.14730178,5.38172557 3.21915266,5.38625724 L5.87089432,5.38625724 L5.87089432,6.3000644 C5.87089432,7.21387157 6.74095616,7.87843691 7.65249483,7.87843691 L10.0970902,7.87843691 C10.9434397,7.90173128 11.6483079,7.23271377 11.6715445,6.38425805 C11.6723375,6.3561935 11.6723375,6.32812895 11.6715445,6.3000644 L11.6715445,5.38617774 L21.6155162,5.38617774 L21.6155162,6.2999849 C21.5922797,7.14844062 22.2596364,7.85506304 23.1059858,7.87835741 C23.1339807,7.87915244 23.1619756,7.87915244 23.1899705,7.87835741 L25.6345659,7.87835741 C26.5461046,7.87835741 27.4161664,7.21379206 27.4161664,6.2999849 L27.4161664,5.38617774 L30.0679081,5.38617774 C30.8443893,5.3371244 31.5134907,5.92838801 31.5624223,6.70680161 C31.5669427,6.7788313 31.565991,6.85117901 31.559488,6.92304969 Z" id="Shape"></path>
        </g>
    </g>
</svg>