<?xml version="1.0" encoding="UTF-8"?>
<svg width="23px" height="17px" viewBox="0 0 23 17" version="1.1" xmlns="http://www.w3.org/2000/svg" xmlns:xlink="http://www.w3.org/1999/xlink">
    <!-- Generator: Sketch 51.2 (57519) - http://www.bohemiancoding.com/sketch -->
    <title>Shape</title>
    <desc>Created with Sketch.</desc>
    <defs></defs>
    <g id="Page-1" stroke="none" stroke-width="1" fill="none" fill-rule="evenodd">
        <g id="Desktop-HD" transform="translate(-123.000000, -21.000000)" fill="#88898A" fill-rule="nonzero">
            <g id="Top-Header" transform="translate(0.000000, -1.000000)">
                <g id="Support-email" transform="translate(123.000000, 21.000000)">
                    <g id="message-icon" transform="translate(0.000000, 1.000000)">
                        <path d="M20.84375,0 L2.15624999,0 C0.96537109,0 0,0.951380206 0,2.125 L0,14.875 C0,16.0486198 0.96537109,17 2.15624999,17 L20.84375,17 C22.0346289,17 23,16.0486198 23,14.875 L23,2.125 C23,0.951380206 22.0346289,0 20.84375,0 Z M20.84375,2.125 L20.84375,3.93147135 C19.8365117,4.7398125 18.2307344,5.99674999 14.7978496,8.64587239 C14.0413203,9.23232812 12.5427265,10.6412474 11.5,10.6248229 C10.4574531,10.6414245 8.95836522,9.23210676 8.20215038,8.64587239 C4.76980468,5.99714843 3.16362304,4.73994531 2.15624999,3.93147135 L2.15624999,2.125 L20.84375,2.125 Z M2.15624999,14.875 L2.15624999,6.65824479 C3.18558984,7.46623177 4.64532616,8.60005208 6.87026171,10.3170521 C7.85211913,11.0787317 9.57159369,12.7601823 11.5,12.7499557 C13.4189277,12.7601823 15.1166152,11.103125 16.129334,10.3174063 C18.3542246,8.60045052 19.8143652,7.46632031 20.84375,6.65824479 L20.84375,14.875 L2.15624999,14.875 Z" id="Shape"></path>
                    </g>
                </g>
            </g>
        </g>
    </g>
</svg>