<?xml version="1.0" encoding="UTF-8"?>
<svg width="17px" height="16px" viewBox="0 0 17 16" version="1.1" xmlns="http://www.w3.org/2000/svg" xmlns:xlink="http://www.w3.org/1999/xlink">
    <!-- Generator: Sketch 51.2 (57519) - http://www.bohemiancoding.com/sketch -->
    <title>Shape</title>
    <desc>Created with Sketch.</desc>
    <defs></defs>
    <g id="Page-1" stroke="none" stroke-width="1" fill="none" fill-rule="evenodd">
        <g id="Desktop-HD" transform="translate(-428.000000, -5440.000000)" fill="#A5A6A7" fill-rule="nonzero">
            <g id="Footer" transform="translate(-3.000000, 5204.000000)">
                <path d="M446.981,244.585 C446.789,240.092 443.512,236.5 439.5,236.5 C435.488,236.5 432.211,240.092 432.019,244.585 C431.429,244.786 431,245.341 431,246 L431,250 C431,250.827 431.67,251.5 432.494,251.5 L434,251.5 L434,250.5 L435,250.5 L435,245.5 L434,245.5 L434,244.5 L433.022,244.5 C433.247,240.598 436.062,237.5 439.5,237.5 C442.938,237.5 445.753,240.598 445.978,244.5 L445,244.5 L445,245.5 L444,245.5 L444,250.5 L445,250.5 L445,251.5 L446.506,251.5 C447.33,251.5 448,250.827 448,250 L448,246 C448,245.341 447.571,244.786 446.981,244.585 Z M433,250.5 L432.494,250.5 C432.222,250.5 432,250.275 432,250 L432,246 C432,245.725 432.222,245.5 432.494,245.5 L433,245.5 L433,250.5 Z M447,250 C447,250.275 446.778,250.5 446.506,250.5 L446,250.5 L446,245.5 L446.506,245.5 C446.778,245.5 447,245.725 447,246 L447,250 Z" id="Shape"></path>
            </g>
        </g>
    </g>
</svg>