<?xml version="1.0" encoding="UTF-8"?>
<svg width="17px" height="17px" viewBox="0 0 17 17" version="1.1" xmlns="http://www.w3.org/2000/svg" xmlns:xlink="http://www.w3.org/1999/xlink">
    <!-- Generator: Sketch 51.2 (57519) - http://www.bohemiancoding.com/sketch -->
    <title>Shape</title>
    <desc>Created with Sketch.</desc>
    <defs></defs>
    <g id="Page-1" stroke="none" stroke-width="1" fill="none" fill-rule="evenodd">
        <g id="linkedin-pic" fill="#00CB54" fill-rule="nonzero">
            <path d="M0.698,5.823 L4.136,5.823 L4.136,16.146 L0.698,16.146 L0.698,5.823 Z M2.438,0.854 C1.271,0.854 0.5,1.625 0.5,2.636 C0.5,3.625 1.24,4.417 2.396,4.417 L2.417,4.417 C3.615,4.417 4.365,3.625 4.355,2.636 C4.344,1.625 3.615,0.854 2.438,0.854 Z M12.552,5.583 C10.723,5.583 9.909,6.585 9.458,7.292 L9.458,5.823 L6.031,5.823 C6.031,5.823 6.073,6.792 6.031,16.146 L9.458,16.146 L9.458,10.385 C9.458,10.073 9.49,9.77 9.572,9.542 C9.823,8.927 10.384,8.292 11.334,8.292 C12.572,8.292 13.072,9.24 13.072,10.625 L13.072,16.146 L16.5,16.146 L16.5,10.229 C16.5,7.062 14.812,5.583 12.552,5.583 Z" id="Shape"></path>
        </g>
    </g>
</svg>