<?xml version="1.0" encoding="UTF-8"?>
<svg width="17px" height="20px" viewBox="0 0 17 20" version="1.1" xmlns="http://www.w3.org/2000/svg" xmlns:xlink="http://www.w3.org/1999/xlink">
    <!-- Generator: Sketch 51.2 (57519) - http://www.bohemiancoding.com/sketch -->
    <title>icon-location</title>
    <desc>Created with Sketch.</desc>
    <defs></defs>
    <g id="Page-1" stroke="none" stroke-width="1" fill="none" fill-rule="evenodd">
        <g id="Desktop-HD" transform="translate(-428.000000, -5518.000000)" fill="#8C8D8E" fill-rule="nonzero">
            <g id="Footer" transform="translate(-3.000000, 5204.000000)">
                <g id="Group-3-Copy-2" transform="translate(431.000000, 314.000000)">
                    <g id="icon-location">
                        <path d="M2.36210526,14.6378947 C0.0569909641,12.3356472 -0.633795166,8.87128094 0.612011717,5.86098848 C1.8578186,2.85069603 4.79473418,0.887650886 8.05263158,0.887650886 C11.310529,0.887650886 14.2474446,2.85069603 15.4932514,5.86098848 C16.7390583,8.87128094 16.0482722,12.3356472 13.7431579,14.6378947 L8.68789474,19.7021053 C8.51989304,19.8714903 8.29120201,19.9667669 8.05263158,19.9667669 C7.81406115,19.9667669 7.58537012,19.8714903 7.41736842,19.7021053 L2.36210526,14.6378947 Z M12.4815789,13.3763158 C14.9273106,10.9303345 14.9271757,6.96483847 12.4812777,4.51902359 C10.0353796,2.07320872 6.06988355,2.07320872 3.62398548,4.51902359 C1.17808741,6.96483847 1.17795253,10.9303345 3.62368421,13.3763158 L8.05263158,17.8052632 L12.4815789,13.3763158 Z M8.05263158,12.5263158 C6.07603353,12.5263158 4.47368421,10.9239665 4.47368421,8.94736842 C4.47368421,6.97077037 6.07603353,5.36842105 8.05263158,5.36842105 C10.0292296,5.36842105 11.6315789,6.97077037 11.6315789,8.94736842 C11.6315789,10.9239665 10.0292296,12.5263158 8.05263158,12.5263158 Z M8.05263158,10.7368421 C9.0409306,10.7368421 9.84210526,9.93566745 9.84210526,8.94736842 C9.84210526,7.9590694 9.0409306,7.15789474 8.05263158,7.15789474 C7.06433255,7.15789474 6.26315789,7.9590694 6.26315789,8.94736842 C6.26315789,9.93566745 7.06433255,10.7368421 8.05263158,10.7368421 Z" id="Shape"></path>
                    </g>
                </g>
            </g>
        </g>
    </g>
</svg>