<?xml version="1.0" encoding="UTF-8"?>
<svg width="14px" height="22px" viewBox="0 0 14 22" version="1.1" xmlns="http://www.w3.org/2000/svg" xmlns:xlink="http://www.w3.org/1999/xlink">
    <!-- Generator: Sketch 51.2 (57519) - http://www.bohemiancoding.com/sketch -->
    <title>Shape Copy</title>
    <desc>Created with Sketch.</desc>
    <defs></defs>
    <g id="Page-1" stroke="none" stroke-width="1" fill="none" fill-rule="evenodd">
        <g id="Desktop-HD" transform="translate(-555.000000, -2345.000000)" fill="#61C4F2" fill-rule="nonzero">
            <g id="Stacked-Group-4" transform="translate(523.000000, 1963.000000)">
                <g id="echo-img-copy-2">
                    <g id="Location-Time" transform="translate(32.000000, 382.000000)">
                        <path d="M7,0.636363636 C3.14109091,0.636363636 0,3.77618182 0,7.63636364 C0,13.202 6.25290909,20.4730909 6.51890909,20.7810909 L7,21.3347273 L7.48109091,20.7798182 C7.74709091,20.4730909 14,13.202 14,7.63636364 C14,3.77618182 10.8589091,0.636363636 7,0.636363636 Z M7,19.3645455 C5.54145455,17.5521818 1.27272727,11.8821818 1.27272727,7.63636364 C1.27272727,4.47872727 3.84236364,1.90909091 7,1.90909091 C10.1576364,1.90909091 12.7272727,4.47872727 12.7272727,7.63636364 C12.7272727,11.8783636 8.45854545,17.5521818 7,19.3645455 Z M7,3.99509091 C4.89490909,3.99509091 3.18181818,5.70818182 3.18181818,7.81327273 C3.18181818,9.91836364 4.89490909,11.6314545 7,11.6314545 C9.10509091,11.6314545 10.8181818,9.91836364 10.8181818,7.81327273 C10.8181818,5.70818182 9.10509091,3.99509091 7,3.99509091 Z M7,10.3587273 C5.59618182,10.3587273 4.45454545,9.21709091 4.45454545,7.81327273 C4.45454545,6.40945455 5.59618182,5.26781818 7,5.26781818 C8.40381818,5.26781818 9.54545455,6.40945455 9.54545455,7.81327273 C9.54545455,9.21709091 8.40381818,10.3587273 7,10.3587273 Z" id="Shape-Copy"></path>
                    </g>
                </g>
            </g>
        </g>
    </g>
</svg>