<?xml version="1.0" encoding="UTF-8"?>
<svg width="11px" height="17px" viewBox="0 0 11 17" version="1.1" xmlns="http://www.w3.org/2000/svg" xmlns:xlink="http://www.w3.org/1999/xlink">
    <!-- Generator: Sketch 51.3 (57544) - http://www.bohemiancoding.com/sketch -->
    <title>mobile</title>
    <desc>Created with Sketch.</desc>
    <defs></defs>
    <g id="Page-1" stroke="none" stroke-width="1" fill="none" fill-rule="evenodd">
        <g id="mobile" fill="#57B0D9" fill-rule="nonzero">
            <path d="M9.5,0 L1.5,0 C0.673,0 0,0.673 0,1.5 L0,15.5 C0,16.327 0.673,17 1.5,17 L9.5,17 C10.327,17 11,16.327 11,15.5 L11,1.5 C11,0.673 10.327,0 9.5,0 Z M1.5,1 L9.5,1 C9.776,1 10,1.224 10,1.5 L10,3 L1,3 L1,1.5 C1,1.224 1.224,1 1.5,1 Z M10,4 L10,12 L1,12 L1,4 L10,4 Z M9.5,16 L1.5,16 C1.224,16 1,15.776 1,15.5 L1,13 L10,13 L10,15.5 C10,15.776 9.776,16 9.5,16 Z M6,14.5 C6,14.776 5.776,15 5.5,15 C5.224,15 5,14.776 5,14.5 C5,14.224 5.224,14 5.5,14 C5.776,14 6,14.224 6,14.5 Z" id="Shape"></path>
        </g>
    </g>
</svg>