<?xml version="1.0" encoding="UTF-8"?>
<svg width="14px" height="17px" viewBox="0 0 14 17" version="1.1" xmlns="http://www.w3.org/2000/svg" xmlns:xlink="http://www.w3.org/1999/xlink">
    <!-- Generator: Sketch 51.2 (57519) - http://www.bohemiancoding.com/sketch -->
    <title>pinterest</title>
    <desc>Created with Sketch.</desc>
    <defs></defs>
    <g id="Page-1" stroke="none" stroke-width="1" fill="none" fill-rule="evenodd">
        <g id="Desktop-HD" transform="translate(-318.000000, -5597.000000)" fill="#A4A4A5" fill-rule="nonzero">
            <g id="pinterest" transform="translate(318.000000, 5597.000000)">
                <path d="M14.025,6.225 C14.025,10.044 11.902,12.887 8.779,12.887 C7.73,12.887 6.744,12.319 6.414,11.674 C5.846,13.912 5.732,14.341 5.732,14.341 C5.529,15.087 5.113,15.834 4.747,16.415 C3.704,17.152 3.607,16.011 3.607,16.011 C3.583,15.327 3.595,14.506 3.773,13.774 C3.773,13.774 3.962,12.989 5.023,8.489 C4.708,7.869 4.708,6.946 4.708,6.946 C4.708,5.505 5.543,4.43 6.58,4.43 C7.465,4.43 7.894,5.1 7.894,5.897 C7.894,6.782 7.324,8.11 7.035,9.336 C6.795,10.373 7.553,11.207 8.564,11.207 C10.411,11.207 11.648,8.844 11.648,6.049 C11.648,3.912 10.208,2.32 7.603,2.32 C4.658,2.32 2.825,4.52 2.825,6.972 C2.825,7.82 3.077,8.414 3.469,8.882 C3.647,9.097 3.672,9.172 3.608,9.425 C3.559,9.602 3.458,10.032 3.407,10.196 C3.344,10.449 3.141,10.537 2.927,10.449 C1.574,9.891 0.941,8.4 0.941,6.731 C0.941,3.975 3.266,0.663 7.869,0.663 C11.586,0.663 14.025,3.355 14.025,6.225 Z" id="Shape"></path>
            </g>
        </g>
    </g>
</svg>