<?xml version="1.0" encoding="UTF-8"?>
<svg width="17px" height="15px" viewBox="0 0 17 15" version="1.1" xmlns="http://www.w3.org/2000/svg" xmlns:xlink="http://www.w3.org/1999/xlink">
    <!-- Generator: Sketch 51.2 (57519) - http://www.bohemiancoding.com/sketch -->
    <title>twitter</title>
    <desc>Created with Sketch.</desc>
    <defs></defs>
    <g id="Page-1" stroke="none" stroke-width="1" fill="none" fill-rule="evenodd">
        <g id="Desktop-HD" transform="translate(-197.000000, -5598.000000)" fill="#A9AAAA" fill-rule="nonzero">
            <g id="twitter" transform="translate(197.000000, 5598.000000)">
                <path d="M17,2.236 C16.374,2.506 15.695,2.7 14.993,2.775 C15.716,2.344 16.266,1.665 16.525,0.856 C15.856,1.255 15.101,1.546 14.314,1.697 C13.678,1.017 12.772,0.597 11.769,0.597 C9.838,0.597 8.285,2.161 8.285,4.08 C8.285,4.35 8.318,4.62 8.371,4.879 C5.48,4.729 2.902,3.348 1.187,1.233 C0.885,1.75 0.712,2.344 0.712,2.992 C0.712,4.2 1.327,5.267 2.265,5.893 C1.694,5.871 1.154,5.709 0.69,5.451 C0.69,5.461 0.69,5.483 0.69,5.494 C0.69,7.186 1.887,8.589 3.484,8.913 C3.193,8.988 2.88,9.031 2.567,9.031 C2.341,9.031 2.125,9.01 1.91,8.977 C2.352,10.358 3.636,11.361 5.167,11.394 C3.969,12.332 2.47,12.882 0.841,12.882 C0.55,12.882 0.28,12.872 -1.55431223e-15,12.84 C1.543,13.832 3.376,14.404 5.351,14.404 C11.758,14.404 15.264,9.097 15.264,4.492 C15.264,4.34 15.264,4.19 15.254,4.038 C15.932,3.542 16.525,2.926 17,2.236 Z M14.263,4.491 C14.263,8.192 11.498,13.403 5.35,13.403 C4.858,13.403 4.371,13.363 3.892,13.285 C4.562,13.009 5.197,12.639 5.783,12.181 C6.116,11.921 6.249,11.479 6.115,11.078 C5.981,10.677 5.61,10.403 5.187,10.394 C4.642,10.383 4.132,10.197 3.72,9.885 C3.724,9.884 3.728,9.883 3.732,9.882 C4.184,9.766 4.495,9.354 4.483,8.888 C4.472,8.421 4.14,8.026 3.683,7.933 C3.031,7.801 2.48,7.417 2.124,6.887 C2.159,6.889 2.193,6.891 2.228,6.892 C2.241,6.892 2.253,6.892 2.266,6.892 C2.698,6.892 3.083,6.614 3.217,6.2 C3.355,5.774 3.193,5.309 2.82,5.06 C2.19,4.64 1.79,3.964 1.722,3.219 C3.546,4.801 5.868,5.75 8.319,5.877 C8.336,5.878 8.354,5.878 8.371,5.878 C8.662,5.878 8.939,5.751 9.13,5.529 C9.332,5.294 9.413,4.978 9.35,4.675 C9.306,4.466 9.284,4.265 9.284,4.08 C9.284,2.711 10.398,1.597 11.768,1.597 C12.466,1.597 13.11,1.875 13.583,2.381 C13.699,2.505 13.844,2.596 14,2.647 C13.981,2.793 13.994,2.944 14.043,3.091 C14.106,3.282 14.223,3.443 14.373,3.561 C14.284,3.725 14.241,3.914 14.254,4.105 C14.264,4.234 14.263,4.362 14.263,4.491 Z" id="Shape"></path>
            </g>
        </g>
    </g>
</svg>