<?xml version="1.0" encoding="UTF-8"?>
<svg width="19px" height="16px" viewBox="0 0 19 16" version="1.1" xmlns="http://www.w3.org/2000/svg" xmlns:xlink="http://www.w3.org/1999/xlink">
    <!-- Generator: Sketch 51.2 (57519) - http://www.bohemiancoding.com/sketch -->
    <title>twitter-icon</title>
    <desc>Created with Sketch.</desc>
    <defs></defs>
    <g id="Page-1" stroke="none" stroke-width="1" fill="none" fill-rule="evenodd">
        <g id="twitter-icon" fill="#0ACC57" fill-rule="nonzero">
            <path d="M17.0470002,3.84580799 C17.0590608,4.01458209 17.0590608,4.18339329 17.0590608,4.35216739 C17.0590608,9.5 13.1409263,15.4315115 5.97971672,15.4315115 C3.77348154,15.4315115 1.72399697,14.7925226 0,13.6834304 C0.313464115,13.7195751 0.614830527,13.7316357 0.940355236,13.7316357 C2.76076274,13.7316357 4.43655444,13.1168051 5.77476084,12.0679417 C4.06282446,12.0317599 2.62817042,10.91057 2.13387162,9.36740769 C2.37500928,9.40355236 2.61610983,9.42767355 2.86930808,9.42767355 C3.21891687,9.42767355 3.56856277,9.37943117 3.89405037,9.29508123 C2.10978754,8.93337474 0.771544029,7.36612838 0.771544029,5.47335732 L0.771544029,5.42515205 C1.28992691,5.71449498 1.89277107,5.89532967 2.53168567,5.91941375 C1.4828222,5.22015906 0.795665217,4.02664268 0.795665217,2.67637569 C0.795665217,1.95303693 0.988523393,1.28996402 1.3261087,0.711278169 C3.24300095,3.07422685 6.12436963,4.61735202 9.35530998,4.78616323 C9.29504412,4.4968203 9.25886234,4.19545389 9.25886234,3.89405037 C9.25886234,1.74808105 10.9949199,0 13.1529127,0 C14.2741026,0 15.2867843,0.470177618 15.9980996,1.22969816 C16.8781519,1.06092407 17.7220595,0.735399357 18.4695565,0.289342927 C18.1801765,1.19355349 17.565346,1.95307404 16.7576201,2.43527514 C17.5412619,2.3509252 18.3007824,2.13387162 19,1.83250521 C18.4696307,2.60404923 17.8065207,3.29120622 17.0470002,3.84580799 Z" id="Shape"></path>
        </g>
    </g>
</svg>