<?xml version="1.0" encoding="UTF-8"?>
<svg width="17px" height="17px" viewBox="0 0 17 17" version="1.1" xmlns="http://www.w3.org/2000/svg" xmlns:xlink="http://www.w3.org/1999/xlink">
    <!-- Generator: Sketch 51.3 (57544) - http://www.bohemiancoding.com/sketch -->
    <title>user</title>
    <desc>Created with Sketch.</desc>
    <defs></defs>
    <g id="Page-1" stroke="none" stroke-width="1" fill="none" fill-rule="evenodd">
        <g id="user" transform="translate(-1.000000, 0.000000)" fill="#5BBAE5" fill-rule="nonzero">
            <path d="M18,16.488 C17.937,13.801 15.222,11.489 11.479,10.879 L11.479,9.505 C11.971,9.032 12.321,8.298 12.55,7.672 C12.882,7.506 13.174,7.136 13.344,6.639 C13.582,5.951 13.49,5.316 13.138,5.01 C13.166,4.772 13.184,4.529 13.153,4.287 C13.074,3.624 13.218,3.249 13.347,2.919 C13.453,2.642 13.576,2.328 13.453,1.974 C13.011,0.701 11.726,-2.22044605e-16 9.835,-2.22044605e-16 L9.571,0.005 C8.258,0.052 7.864,0.605 7.6,1.12 C7.567,1.182 7.523,1.266 7.523,1.271 C5.811,1.424 5.826,2.84 5.839,3.978 L5.842,4.347 C5.842,4.552 5.851,4.766 5.868,4.986 C5.443,5.286 5.364,5.991 5.689,6.723 C5.874,7.138 6.141,7.452 6.438,7.615 C6.681,8.289 7.063,9.085 7.617,9.58 L7.617,10.863 C3.819,11.452 1.063,13.77 1,16.488 L0.988,17 L18.011,17 L18,16.488 Z M2.054,16 C2.446,13.906 4.913,12.179 8.176,11.796 L8.617,11.744 L8.617,9.078 L8.401,8.928 C8.008,8.656 7.61,7.981 7.311,7.077 L7.228,6.796 L6.934,6.745 C6.881,6.726 6.726,6.592 6.604,6.317 C6.529,6.149 6.5,6.005 6.492,5.902 L7.002,6.045 L6.906,5.296 C6.864,4.966 6.842,4.645 6.842,4.346 L6.839,3.966 C6.824,2.625 6.89,2.332 7.612,2.267 C8.157,2.219 8.364,1.818 8.488,1.578 C8.638,1.286 8.768,1.035 9.608,1.004 L9.835,1 C10.664,1 12.114,1.169 12.504,2.282 C12.504,2.325 12.452,2.459 12.414,2.557 C12.269,2.931 12.05,3.496 12.16,4.41 C12.184,4.598 12.153,4.834 12.12,5.085 L12.031,5.89 L12.472,5.842 C12.48,5.946 12.468,6.111 12.397,6.314 C12.3,6.603 12.155,6.752 12.16,6.768 L11.8,6.768 L11.686,7.11 C11.403,7.963 11.036,8.607 10.677,8.878 L10.479,9.028 L10.479,11.754 L10.917,11.809 C14.128,12.21 16.558,13.932 16.947,16.001 L2.054,16.001 L2.054,16 Z" id="Shape"></path>
        </g>
    </g>
</svg>