<?xml version="1.0" encoding="UTF-8"?>
<svg width="19px" height="18px" viewBox="0 0 19 18" version="1.1" xmlns="http://www.w3.org/2000/svg" xmlns:xlink="http://www.w3.org/1999/xlink">
    <!-- Generator: Sketch 51.2 (57519) - http://www.bohemiancoding.com/sketch -->
    <title>time</title>
    <desc>Created with Sketch.</desc>
    <defs></defs>
    <g id="Page-1" stroke="none" stroke-width="1" fill="none" fill-rule="evenodd">
        <g id="Desktop-HD" transform="translate(-553.000000, -2306.000000)" fill="#61C4F2" fill-rule="nonzero">
            <g id="Stacked-Group-4" transform="translate(523.000000, 1963.000000)">
                <g id="echo-img-copy-2">
                    <g id="Event-time" transform="translate(30.000000, 342.000000)">
                        <g id="time" transform="translate(0.000000, 1.000000)">
                            <path d="M9.14744444,0 C4.20005556,0 0.175222222,4.02483333 0.175222222,8.97222222 C0.175222222,13.9196111 4.20005556,17.9444444 9.14744444,17.9444444 C14.0948333,17.9444444 18.1196667,13.9196111 18.1196667,8.97222222 C18.1196667,4.02483333 14.0948333,0 9.14744444,0 Z M9.14744444,16.8888889 C4.78166667,16.8888889 1.23077778,13.338 1.23077778,8.97222222 C1.23077778,4.60644444 4.78166667,1.05555556 9.14744444,1.05555556 C13.5132222,1.05555556 17.0641111,4.60644444 17.0641111,8.97222222 C17.0641111,13.338 13.5132222,16.8888889 9.14744444,16.8888889 Z M14.7777778,9.5 L14.7777778,10.5555556 L8.44444444,10.5555556 L8.44444444,5.27777778 L9.5,5.27777778 L9.5,9.5 L14.7777778,9.5 Z" id="Shape"></path>
                        </g>
                    </g>
                </g>
            </g>
        </g>
    </g>
</svg>