<?xml version="1.0" encoding="UTF-8"?>
<svg width="19px" height="19px" viewBox="0 0 19 19" version="1.1" xmlns="http://www.w3.org/2000/svg" xmlns:xlink="http://www.w3.org/1999/xlink">
    <!-- Generator: Sketch 51.2 (57519) - http://www.bohemiancoding.com/sketch -->
    <title>instagram</title>
    <desc>Created with Sketch.</desc>
    <defs></defs>
    <g id="Page-1" stroke="none" stroke-width="1" fill="none" fill-rule="evenodd">
        <g id="Desktop-HD" transform="translate(-893.000000, -21.000000)" fill="#8F9091" fill-rule="nonzero">
            <g id="Top-Header" transform="translate(0.000000, -1.000000)">
                <g id="Instagram-media" transform="translate(877.000000, 1.000000)">
                    <g id="instagram" transform="translate(16.000000, 21.000000)">
                        <path d="M9.50422222,4.64444444 C6.81888889,4.64444444 4.65288889,6.81044444 4.65288889,9.49577778 C4.65288889,12.1811111 6.81888889,14.3471111 9.50422222,14.3471111 C12.1895556,14.3471111 14.3555556,12.1811111 14.3555556,9.49577778 C14.3555556,6.81044444 12.1895556,4.64444444 9.50422222,4.64444444 Z M9.50422222,12.6497778 C7.76888889,12.6497778 6.35022222,11.2353333 6.35022222,9.49577778 C6.35022222,7.75622222 7.76466667,6.34177778 9.50422222,6.34177778 C11.2437778,6.34177778 12.6582222,7.75622222 12.6582222,9.49577778 C12.6582222,11.2353333 11.2395556,12.6497778 9.50422222,12.6497778 Z M15.6855556,4.446 C15.6855556,5.07511111 15.1788889,5.57755556 14.554,5.57755556 C13.9248889,5.57755556 13.4224444,5.07088889 13.4224444,4.446 C13.4224444,3.82111111 13.9291111,3.31444444 14.554,3.31444444 C15.1788889,3.31444444 15.6855556,3.82111111 15.6855556,4.446 Z M18.8986667,5.59444444 C18.8268889,4.07866667 18.4806667,2.736 17.3702222,1.62977778 C16.264,0.523555556 14.9213333,0.177333333 13.4055556,0.101333333 C11.8433333,0.0126666667 7.16088889,0.0126666667 5.59866667,0.101333333 C4.08711111,0.173111111 2.74444444,0.519333333 1.634,1.62555556 C0.523555556,2.73177778 0.181555556,4.07444444 0.105555556,5.59022222 C0.0168888889,7.15244444 0.0168888889,11.8348889 0.105555556,13.3971111 C0.177333333,14.9128889 0.523555556,16.2555556 1.634,17.3617778 C2.74444444,18.468 4.08288889,18.8142222 5.59866667,18.8902222 C7.16088889,18.9788889 11.8433333,18.9788889 13.4055556,18.8902222 C14.9213333,18.8184444 16.264,18.4722222 17.3702222,17.3617778 C18.4764444,16.2555556 18.8226667,14.9128889 18.8986667,13.3971111 C18.9873333,11.8348889 18.9873333,7.15666667 18.8986667,5.59444444 Z M16.8804444,15.0733333 C16.5511111,15.9008889 15.9135556,16.5384444 15.0817778,16.872 C13.8362222,17.366 10.8806667,17.252 9.50422222,17.252 C8.12777778,17.252 5.168,17.3617778 3.92666667,16.872 C3.09911111,16.5426667 2.46155556,15.9051111 2.128,15.0733333 C1.634,13.8277778 1.748,10.8722222 1.748,9.49577778 C1.748,8.11933333 1.63822222,5.15955556 2.128,3.91822222 C2.45733333,3.09066667 3.09488889,2.45311111 3.92666667,2.11955556 C5.17222222,1.62555556 8.12777778,1.73955556 9.50422222,1.73955556 C10.8806667,1.73955556 13.8404444,1.62977778 15.0817778,2.11955556 C15.9093333,2.44888889 16.5468889,3.08644444 16.8804444,3.91822222 C17.3744444,5.16377778 17.2604444,8.11933333 17.2604444,9.49577778 C17.2604444,10.8722222 17.3744444,13.832 16.8804444,15.0733333 Z" id="Shape"></path>
                    </g>
                </g>
            </g>
        </g>
    </g>
</svg>