<?xml version="1.0" encoding="UTF-8"?>
<svg width="19px" height="18px" viewBox="0 0 19 18" version="1.1" xmlns="http://www.w3.org/2000/svg" xmlns:xlink="http://www.w3.org/1999/xlink">
    <!-- Generator: Sketch 51.2 (57519) - http://www.bohemiancoding.com/sketch -->
    <title>Shape</title>
    <desc>Created with Sketch.</desc>
    <defs></defs>
    <g id="Page-1" stroke="none" stroke-width="1" fill="none" fill-rule="evenodd">
        <g id="Desktop-HD" transform="translate(-426.000000, -20.000000)" fill="#88898A" fill-rule="nonzero">
            <g id="Top-Header" transform="translate(0.000000, -1.000000)">
                <g id="Phone-Number" transform="translate(424.000000, 21.000000)">
                    <g id="phone" transform="translate(10.500000, 9.816667) rotate(90.000000) translate(-10.500000, -9.816667) translate(1.000000, 0.000000)">
                        <path d="M16.8448815,0.868365643 L13.2942538,0.0217833341 C12.9079864,-0.0703292803 12.5131498,0.136509578 12.3568881,0.513250523 L10.7181368,4.46435603 C10.5743333,4.81108937 10.6698636,5.21430592 10.95241,5.45318195 L13.0219138,7.202863 C11.7937722,9.90785522 9.64410607,12.1597987 6.97051755,13.4559372 L5.27727782,11.3174851 C5.04610748,11.0255206 4.65589791,10.926806 4.32034951,11.0754029 L0.496699024,12.7687792 C0.132213434,12.9301791 -0.0680897653,13.3381417 0.0210856151,13.7373904 L0.840358817,17.4063724 C0.9255056,17.787629 1.25458734,18.0626615 1.63873794,18.0626615 C10.3817148,18.0626615 17.48,10.741208 17.48,1.6933574 C17.48,1.29908296 17.216639,0.956985668 16.8448815,0.868365643 Z" id="Shape"></path>
                    </g>
                </g>
            </g>
        </g>
    </g>
</svg>